<?xml version="1.0" encoding="utf-8"?>
<!-- Generator: Adobe Illustrator 15.1.0, SVG Export Plug-In . SVG Version: 6.00 Build 0)  -->
<!DOCTYPE svg PUBLIC "-//W3C//DTD SVG 1.1//EN" "http://www.w3.org/Graphics/SVG/1.1/DTD/svg11.dtd">
<svg version="1.1" id="Calque_1" xmlns="http://www.w3.org/2000/svg" xmlns:xlink="http://www.w3.org/1999/xlink" x="0px" y="0px"
	 width="44.624px" height="44px" viewBox="11.688 12.139 44.624 44" enable-background="new 11.688 12.139 44.624 44"
	 xml:space="preserve">
<path opacity="0.3" fill="#135B4C" d="M37.177,13.308c-0.138-0.283-0.337-0.531-0.584-0.726c-0.248-0.194-0.536-0.33-0.843-0.396
	c-0.308-0.066-0.626-0.062-0.932,0.013l-2.278,0.558c-5.259,1.283-10.75,1.283-16.009,0l-2.278-0.558
	c-0.305-0.075-0.624-0.079-0.931-0.013c-0.307,0.067-0.596,0.202-0.843,0.396s-0.447,0.443-0.584,0.726
	c-0.137,0.283-0.208,0.593-0.208,0.908v12.904c0,2.203,0.579,4.368,1.681,6.275c1.102,1.908,2.686,3.492,4.595,4.593l3.83,2.212
	c0.834,0.479,1.78,0.732,2.743,0.732s1.908-0.253,2.742-0.732l3.831-2.212c1.907-1.103,3.491-2.687,4.591-4.594
	c1.103-1.908,1.683-4.071,1.684-6.274V14.215C37.385,13.901,37.313,13.59,37.177,13.308z M17.071,24.042
	c-0.029-0.051-0.043-0.11-0.04-0.169s0.024-0.115,0.061-0.162c0.036-0.047,0.085-0.082,0.141-0.101s0.116-0.021,0.173-0.005
	c0.707,0.17,1.431,0.254,2.157,0.251c0.726,0.003,1.451-0.081,2.157-0.251c0.057-0.018,0.119-0.018,0.175,0
	c0.058,0.019,0.107,0.054,0.143,0.102c0.036,0.048,0.056,0.106,0.057,0.167c0.001,0.06-0.016,0.119-0.05,0.168
	c-0.233,0.459-0.589,0.844-1.028,1.114c-0.439,0.27-0.943,0.412-1.459,0.412c-0.515,0-1.02-0.143-1.459-0.412
	C17.66,24.887,17.304,24.501,17.071,24.042z M30.43,34.278c-0.087,0.117-0.207,0.206-0.344,0.255
	c-0.137,0.05-0.286,0.059-0.427,0.023c-1.732-0.419-3.508-0.625-5.29-0.614c-1.766-0.007-3.526,0.199-5.243,0.614
	c-0.145,0.047-0.301,0.049-0.446,0.005c-0.146-0.044-0.275-0.132-0.369-0.251c-0.095-0.12-0.15-0.265-0.159-0.417
	c-0.009-0.152,0.029-0.303,0.109-0.433c0.591-1.106,1.472-2.031,2.547-2.676c1.076-0.645,2.307-0.985,3.561-0.985
	s2.484,0.34,3.561,0.985c1.076,0.645,1.956,1.569,2.547,2.676c0.074,0.125,0.108,0.271,0.1,0.416
	C30.568,34.021,30.517,34.161,30.43,34.278z M31.992,24.042c-0.233,0.459-0.589,0.844-1.028,1.114
	c-0.439,0.27-0.944,0.412-1.459,0.412s-1.02-0.143-1.459-0.412c-0.438-0.27-0.794-0.655-1.028-1.114
	c-0.029-0.051-0.043-0.11-0.04-0.169s0.025-0.115,0.061-0.162c0.036-0.047,0.085-0.082,0.141-0.101
	c0.056-0.019,0.116-0.021,0.173-0.005c0.706,0.171,1.43,0.255,2.157,0.251c0.723,0.003,1.444-0.081,2.147-0.251
	c0.057-0.015,0.117-0.014,0.173,0.005c0.056,0.019,0.104,0.054,0.141,0.101c0.036,0.047,0.057,0.103,0.061,0.162
	S32.021,23.991,31.992,24.042z"/>
<path fill="#135B4C" d="M35.459,27.938l-2.277-0.558c-0.303-0.074-0.619-0.079-0.924-0.014c-0.305,0.065-0.592,0.198-0.839,0.389
	c-0.246,0.191-0.447,0.436-0.585,0.715c-0.139,0.279-0.213,0.586-0.217,0.899v8.878l0.493-0.288
	c1.728-0.999,3.192-2.396,4.272-4.074c1.08-1.678,1.745-3.589,1.938-5.576C36.696,28.216,36.073,28.086,35.459,27.938z"/>
<path fill="#135B4C" d="M56.104,28.461c-0.138-0.283-0.337-0.531-0.584-0.725c-0.248-0.194-0.535-0.33-0.843-0.396
	c-0.308-0.067-0.627-0.063-0.932,0.012l-2.277,0.558c-5.259,1.292-10.751,1.292-16.01,0l-2.277-0.558
	c-0.305-0.075-0.624-0.079-0.931-0.012c-0.307,0.066-0.596,0.202-0.842,0.396c-0.248,0.194-0.448,0.442-0.584,0.725
	c-0.137,0.283-0.208,0.594-0.208,0.908v12.932c0.001,2.204,0.582,4.369,1.683,6.277c1.101,1.909,2.685,3.495,4.592,4.6l3.83,2.222
	c0.833,0.483,1.778,0.739,2.742,0.739s1.91-0.256,2.743-0.739l3.83-2.203c1.911-1.104,3.498-2.692,4.599-4.606
	c1.102-1.913,1.68-4.081,1.676-6.289V29.369C56.312,29.055,56.242,28.744,56.104,28.461z M36.343,40.711
	c-0.058,0.018-0.12,0.016-0.178-0.003s-0.108-0.055-0.146-0.104c-0.035-0.049-0.056-0.106-0.059-0.168
	c-0.003-0.061,0.015-0.121,0.047-0.171c0.233-0.46,0.59-0.847,1.028-1.115c0.439-0.27,0.944-0.412,1.458-0.412
	c0.517,0,1.021,0.143,1.46,0.412c0.439,0.269,0.795,0.655,1.027,1.115c0.028,0.051,0.041,0.109,0.037,0.168
	c-0.005,0.059-0.025,0.115-0.062,0.161c-0.034,0.047-0.082,0.083-0.138,0.104c-0.056,0.02-0.115,0.024-0.173,0.012
	c-0.705-0.171-1.429-0.254-2.156-0.251C37.767,40.457,37.045,40.54,36.343,40.711z M49.414,46.103
	c-0.593,1.106-1.475,2.03-2.551,2.675c-1.077,0.645-2.308,0.984-3.562,0.984c-1.255,0-2.486-0.34-3.563-0.984
	c-1.075-0.645-1.956-1.568-2.55-2.675c-0.073-0.126-0.108-0.271-0.1-0.417c0.008-0.145,0.059-0.285,0.146-0.401
	c0.087-0.117,0.206-0.206,0.344-0.255s0.286-0.058,0.428-0.023c1.731,0.422,3.508,0.631,5.29,0.623
	c1.785,0.008,3.564-0.201,5.299-0.623c0.143-0.034,0.291-0.025,0.428,0.023s0.256,0.138,0.344,0.255
	c0.087,0.116,0.138,0.257,0.146,0.401C49.522,45.832,49.487,45.977,49.414,46.103z M50.905,40.595
	c-0.035,0.047-0.084,0.083-0.139,0.104c-0.055,0.02-0.114,0.024-0.173,0.012c-0.706-0.171-1.431-0.254-2.156-0.251
	c-0.727-0.003-1.45,0.08-2.157,0.251c-0.057,0.015-0.118,0.013-0.174-0.008s-0.104-0.057-0.139-0.104
	c-0.036-0.049-0.056-0.106-0.059-0.166c-0.001-0.059,0.014-0.118,0.047-0.167c0.232-0.46,0.589-0.847,1.026-1.115
	c0.439-0.27,0.944-0.412,1.46-0.412c0.515,0,1.021,0.143,1.459,0.412c0.438,0.269,0.795,0.655,1.027,1.115
	c0.028,0.051,0.041,0.109,0.037,0.168C50.961,40.492,50.94,40.549,50.905,40.595z"/>
</svg>
