<svg width="45" height="42" viewBox="0 0 45 42" fill="none" xmlns="http://www.w3.org/2000/svg">
<path d="M6.43433 24.8161V41.0801C6.43433 41.5798 6.84582 41.9913 7.3455 41.9913H19.7394V34.7313C19.7394 34.2316 20.1509 33.8201 20.6506 33.8201H25.2064C25.7159 33.8201 26.1176 34.2316 26.1176 34.7313V41.9913H37.9237C38.4233 41.9913 38.8348 41.5798 38.8348 41.0801V24.483L22.8354 10.5117L6.43433 24.8161ZM17.5056 29.1761C17.5056 29.6855 17.0941 30.0872 16.5944 30.0872H13.2926C12.7929 30.0872 12.3814 29.6757 12.3814 29.1761V25.8743C12.3814 25.3648 12.7929 24.9631 13.2926 24.9631H16.5944C17.1039 24.9631 17.5056 25.3746 17.5056 25.8743V29.1761ZM27.7734 25.8743C27.7734 25.3648 28.1849 24.9631 28.6846 24.9631H31.9863C32.486 24.9631 32.8975 25.3746 32.8975 25.8743V29.1761C32.8975 29.6855 32.486 30.0872 31.9863 30.0872H28.6846C28.1849 30.0872 27.7734 29.6757 27.7734 29.1761V25.8743ZM25.2064 25.8743V29.1761C25.2064 29.6855 24.7949 30.0872 24.2953 30.0872H20.9935C20.484 30.0872 20.0823 29.6757 20.0823 29.1761V25.8743C20.0823 25.3648 20.4938 24.9631 20.9935 24.9631H24.2953C24.7949 24.9631 25.2064 25.3648 25.2064 25.8743Z" fill="#135B4C"/>
<path opacity="0.3" d="M34.6712 0.00872803C35.3081 0.00872803 35.8175 0.527998 35.8175 1.15504H35.8077V12.0205L33.5249 10.0022V1.15504C33.5249 0.518201 34.0442 0.00872803 34.6712 0.00872803Z" fill="#135B4C"/>
<path opacity="0.3" d="M23.992 4.0551C24.0018 4.0649 24.0214 4.0747 24.0312 4.0845L44.0476 21.4556C44.8118 22.112 44.8999 23.2681 44.2337 24.0323C43.8712 24.4438 43.3617 24.6594 42.8523 24.6594C42.431 24.6594 41.9999 24.5124 41.657 24.2087L23.0122 7.61924L3.99516 24.2087C3.65224 24.5124 3.22115 24.6594 2.79985 24.6594C2.29038 24.6594 1.78091 24.4536 1.4184 24.0323C0.761963 23.2681 0.840344 22.1218 1.60455 21.4556L21.6503 4.0747C21.6601 4.0649 21.6797 4.0551 21.6895 4.04531C21.7385 4.00612 21.7973 3.96694 21.8561 3.92776L21.8561 3.92773C21.8953 3.89834 21.9345 3.86895 21.9835 3.84935C22.0422 3.81996 22.101 3.80037 22.1696 3.77097L22.3166 3.71219C22.3754 3.69259 22.4342 3.6828 22.4929 3.673C22.5517 3.6632 22.6007 3.6534 22.6595 3.64361H22.8358C22.8946 3.64361 22.9534 3.63381 23.0122 3.64361C23.071 3.6534 23.12 3.6632 23.1788 3.673C23.2376 3.6828 23.2963 3.69259 23.3551 3.71219C23.4139 3.73178 23.4629 3.75138 23.5119 3.77097C23.5707 3.79057 23.6295 3.81996 23.6882 3.84935C23.7372 3.87875 23.7764 3.90814 23.8254 3.93753C23.8842 3.97672 23.943 4.01591 23.992 4.0551Z" fill="#135B4C"/>
</svg>
