<svg width="30" height="44" viewBox="0 0 30 44" fill="none" xmlns="http://www.w3.org/2000/svg">
<path d="M27.9145 17.5611H23.0077C19.3922 17.5611 16.3793 20.0575 15.6046 23.3287C15.5185 23.5869 15.1741 23.5869 15.1741 23.3287C14.3133 19.9714 11.3004 17.5611 7.77099 17.5611H2.77816C1.65908 17.5611 0.712158 18.508 0.712158 19.6271V21.607C0.712158 25.8251 4.15549 29.2684 8.37357 29.2684H15.3463H22.319C26.5371 29.2684 29.9805 25.8251 29.9805 21.607V19.6271C29.9805 18.508 29.0335 17.5611 27.9145 17.5611Z" fill="#135B4C"/>
<path d="M29.9805 19.6272C29.9805 18.8524 29.0336 18.3359 28.431 18.8524L20.0809 25.4808C17.3263 27.719 13.3664 27.719 10.5257 25.4808L2.17562 18.8524C1.57304 18.3359 0.626122 18.7663 0.540039 19.6272V21.6071C0.540039 25.8251 3.98337 29.2685 8.20145 29.2685H11.0422C12.2474 29.2685 13.2804 30.2154 13.2804 31.5066V33.8309H17.2402V31.5066C17.2402 30.3015 18.1871 29.2685 19.4784 29.2685H22.3191C26.5372 29.2685 29.9805 25.8251 29.9805 21.6071V19.6272Z" fill="#135B4C"/>
<path opacity="0.3" d="M25.1602 37.3603H5.53319C4.58627 37.3603 3.81152 36.5855 3.81152 35.6386C3.81152 34.6917 4.58627 33.917 5.53319 33.917H25.1602C26.1071 33.917 26.8818 34.6917 26.8818 35.6386C26.7958 36.5855 26.1071 37.3603 25.1602 37.3603Z" fill="#135B4C"/>
<path opacity="0.3" d="M20.9416 43.3H9.57858C8.976 43.3 8.37341 42.9557 8.11516 42.3531L5.70483 37.2742H24.9014L22.4911 42.3531C22.2328 42.9557 21.6302 43.3 20.9416 43.3Z" fill="#135B4C"/>
<path opacity="0.3" d="M10.5663 8.26336C9.14481 13.0014 12.4354 15.167 14.2969 17.4146C14.7267 17.9335 15.5588 18.0545 16.0946 17.6458C17.9516 16.2296 20.1093 15.1748 21.0331 11.0178C21.5921 8.50246 19.1564 3.13358 16.8533 0.951598C15.8907 0.0395575 14.5938 0.577815 13.8793 1.69498C12.7578 3.44873 11.1873 6.19361 10.5663 8.26336Z" fill="#135B4C"/>
</svg>
