<svg width="34" height="40" viewBox="0 0 34 40" fill="none" xmlns="http://www.w3.org/2000/svg">
<path opacity="0.3" fill-rule="evenodd" clip-rule="evenodd" d="M0.53025 36.5104C1.8513 27.9922 8.72227 21.5 17 21.5C25.2778 21.5 32.1487 27.9922 33.4698 36.5104C33.7238 38.1481 32.3398 39.5 30.6629 39.5L3.33712 39.5C1.66027 39.5 0.276226 38.1481 0.53025 36.5104ZM23.75 27.5C22.9216 27.5 22.25 28.1716 22.25 29C22.25 29.8285 22.9216 30.5 23.75 30.5C24.5785 30.5 25.25 29.8285 25.25 29C25.25 28.1716 24.5785 27.5 23.75 27.5ZM8.75002 29C8.75002 28.1716 9.42157 27.5 10.25 27.5C11.0785 27.5 11.75 28.1716 11.75 29C11.75 29.8285 11.0785 30.5 10.25 30.5C9.42157 30.5 8.75002 29.8285 8.75002 29ZM17 24.5C15.7573 24.5 14.75 25.5074 14.75 26.75C14.75 27.9927 15.7573 29 17 29C18.2427 29 19.25 27.9927 19.25 26.75C19.25 25.5074 18.2427 24.5 17 24.5Z" fill="#135B4C" fill-opacity="0.8"/>
<path fill-rule="evenodd" clip-rule="evenodd" d="M33.4776 3.26206C32.2467 11.8921 25.3381 18.5002 17 18.5002C8.66188 18.5002 1.75333 11.8921 0.522426 3.26206C0.306128 1.74549 1.68455 0.500186 3.35878 0.500185L30.6412 0.500183C32.3155 0.500183 33.6939 1.74548 33.4776 3.26206ZM27.5 5.75018C27.5 9.89228 22.799 13.2502 17 13.2502C11.201 13.2502 6.5 9.89229 6.5 5.75019L27.5 5.75018Z" fill="#3A7568"/>
<path d="M6.5 4.25018H28.25V13.2502H6.5V4.25018Z" fill="#3A7568"/>
</svg>
