<svg width="45" height="41" viewBox="0 0 45 41" fill="none" xmlns="http://www.w3.org/2000/svg">
<path d="M25.6392 39.1778C25.7303 37.3555 25.8214 35.4422 25.8214 33.5289H19.4436C19.4436 35.5333 19.5347 37.4466 19.6258 39.1778H25.6392Z" fill="#135B4C"/>
<path opacity="0.3" d="M42.511 20.8762H2.4814C1.57983 20.8762 0.94873 19.5228 0.94873 18.0003C0.94873 16.3086 1.66998 15.1244 2.4814 15.1244H42.511C43.4126 15.1244 44.0437 16.4777 44.0437 18.0003C44.1338 19.5228 43.4126 20.8762 42.511 20.8762Z" fill="#135B4C"/>
<path d="M24.3651 17.4022C24.8206 16.6733 25.1851 15.8533 25.5495 15.1244H19.9006C20.2651 15.9444 20.6295 16.6733 21.0851 17.4022C21.814 18.5866 23.6362 18.5866 24.3651 17.4022Z" fill="#135B4C"/>
<path opacity="0.2" d="M30.0108 5.46667H15.5271V3.66751C15.5271 1.66076 17.7843 0 20.5118 0H25.1202C27.8477 0 30.1049 1.66076 30.1049 3.66751V5.46667H30.0108Z" fill="#135B4C"/>
<path fill-rule="evenodd" clip-rule="evenodd" d="M17.0114 10.8423H16.8023C16.0735 10.8423 15.4357 10.2045 15.4357 9.47559V7.9267H16.8931H19.1712H26.2781H28.5553H30.0136V9.47559C30.0136 10.2045 29.3758 10.8423 28.6469 10.8423H28.4498C28.0776 12.7511 26.7555 14.3452 25.0458 15.0333H37.1195C37.9395 15.0333 38.6684 15.7622 38.6684 16.6733V20.3178C38.6684 21.1378 38.0306 21.7755 37.3018 21.9578L33.9306 22.5955C32.9284 22.7778 32.3818 23.8711 32.7462 24.7822C34.0218 28.2444 34.7506 32.3444 34.7506 36.7178C34.7506 37.6289 34.7506 38.54 34.6595 39.4511C34.5684 40.3622 33.8395 41 33.0195 41H12.4284C11.5173 41 10.8795 40.2711 10.7884 39.4511C10.6973 38.54 10.6973 37.6289 10.6973 36.7178V36.7178C10.6973 32.2533 11.4262 28.1533 12.7018 24.7822C13.0662 23.78 12.5195 22.7778 11.5173 22.5955L8.14621 21.9578C7.32621 21.7755 6.77954 21.1378 6.77954 20.3178V16.6733C6.77954 15.7622 7.50843 15.0333 8.41954 15.0333H20.4479C18.7203 14.3503 17.4014 12.7711 17.0114 10.8423ZM22.7249 26.7867C22.9982 25.5111 24.0916 24.5089 25.4582 24.5089H27.4627C27.6449 24.5089 27.736 24.6 27.736 24.7822V25.9667C27.736 27.5156 26.5516 28.7 25.0027 28.7H24.456C23.8182 28.7 23.2716 29.2467 23.2716 29.8845V31.7067C23.2716 32.1622 22.9071 32.4356 22.5427 32.4356C22.0871 32.4356 21.8138 32.0711 21.8138 31.7067V29.8845C21.8138 29.2467 21.2671 28.7 20.6293 28.7H20.0827C18.5338 28.7 17.3493 27.5156 17.3493 25.9667V24.7822C17.3493 24.6 17.4405 24.5089 17.6227 24.5089H19.9005C21.2671 24.5089 22.4516 25.5111 22.6338 26.7867H22.7249Z" fill="#135B4C"/>
</svg>
