<?xml version="1.0" encoding="utf-8"?>
<!-- Generator: Adobe Illustrator 15.1.0, SVG Export Plug-In . SVG Version: 6.00 Build 0)  -->
<!DOCTYPE svg PUBLIC "-//W3C//DTD SVG 1.1//EN" "http://www.w3.org/Graphics/SVG/1.1/DTD/svg11.dtd">
<svg version="1.1" id="Calque_1" xmlns="http://www.w3.org/2000/svg" xmlns:xlink="http://www.w3.org/1999/xlink" x="0px" y="0px"
	 width="41px" height="41px" viewBox="11.5 11.5 41 41" enable-background="new 11.5 11.5 41 41" xml:space="preserve">
<path fill="#C6D8D4" d="M37.766,15.455h6.072c0.25,0,0.488,0.099,0.665,0.275c0.176,0.177,0.275,0.416,0.275,0.665v4.783
	c0,0.249-0.1,0.488-0.275,0.665c-0.177,0.176-0.415,0.275-0.665,0.275h-3.416c-0.702,0-1.375-0.279-1.872-0.776
	c-0.497-0.496-0.776-1.17-0.776-1.872v-4.015H37.766z"/>
<path fill="#135B4C" d="M32.641,28.259h-1.281V12.141c0.002-0.169,0.07-0.331,0.19-0.45c0.12-0.12,0.281-0.188,0.45-0.19
	c0.169,0.002,0.331,0.07,0.45,0.19c0.12,0.12,0.188,0.281,0.19,0.45V28.259z"/>
<path opacity="0.2" fill="#135B4C" enable-background="new    " d="M29.865,26.277L11.5,52.5h41L34.136,26.277
	c-0.242-0.342-0.562-0.621-0.933-0.813C32.831,25.271,32.418,25.17,32,25.17s-0.831,0.1-1.203,0.293
	C30.426,25.657,30.106,25.936,29.865,26.277z"/>
<path fill="#135B4C" d="M21.075,40.106c0.146,0.202,0.339,0.367,0.562,0.481c0.223,0.114,0.469,0.174,0.719,0.174
	c0.25,0,0.497-0.06,0.719-0.174c0.223-0.114,0.416-0.279,0.562-0.481l0.197-0.282c0.103-0.148,0.24-0.269,0.4-0.352
	c0.16-0.084,0.337-0.128,0.518-0.128c0.18,0,0.358,0.044,0.518,0.128c0.16,0.083,0.297,0.203,0.4,0.352l0.196,0.282
	c0.146,0.202,0.339,0.367,0.562,0.481s0.469,0.174,0.719,0.174c0.25,0,0.497-0.06,0.72-0.174c0.223-0.114,0.416-0.279,0.562-0.481
	l0.197-0.282c0.102-0.148,0.238-0.269,0.398-0.353c0.159-0.084,0.336-0.128,0.517-0.128c0.18,0,0.356,0.044,0.515,0.128
	c0.16,0.084,0.296,0.204,0.398,0.353l0.205,0.282c0.146,0.204,0.337,0.371,0.561,0.485c0.223,0.115,0.47,0.175,0.721,0.175
	c0.251,0,0.499-0.06,0.72-0.175c0.225-0.114,0.415-0.281,0.561-0.485l0.206-0.282c0.102-0.148,0.238-0.269,0.397-0.353
	s0.336-0.128,0.517-0.128c0.179,0,0.356,0.044,0.516,0.128s0.296,0.204,0.398,0.353l0.195,0.282
	c0.146,0.202,0.339,0.367,0.562,0.481c0.225,0.114,0.47,0.174,0.72,0.174c0.251,0,0.497-0.06,0.721-0.174
	c0.222-0.114,0.415-0.279,0.561-0.481l0.197-0.282c0.103-0.148,0.24-0.269,0.4-0.352c0.16-0.084,0.337-0.128,0.518-0.128
	s0.357,0.044,0.518,0.128c0.16,0.083,0.297,0.203,0.4,0.352l0.196,0.282c0.146,0.202,0.34,0.367,0.562,0.481
	c0.224,0.114,0.471,0.174,0.72,0.174c0.252,0,0.497-0.06,0.72-0.174s0.415-0.279,0.562-0.481c0.13-0.188,0.198-0.412,0.198-0.641
	s-0.068-0.452-0.198-0.641l-8.669-12.548c-0.242-0.342-0.562-0.621-0.933-0.813C32.831,25.271,32.418,25.17,32,25.17
	c-0.418,0-0.831,0.1-1.203,0.293c-0.372,0.193-0.691,0.472-0.933,0.813l-8.79,12.556c-0.129,0.188-0.198,0.412-0.198,0.641
	s0.069,0.452,0.198,0.641V40.106z"/>
<path fill="#135B4C" d="M38.713,12.995h-6.072v6.654h4.356c0.21,0.005,0.414,0.076,0.58,0.204c0.167,0.127,0.29,0.304,0.351,0.505
	c0.059,0.156,0.131,0.308,0.213,0.453c0.102,0.142,0.246,0.25,0.411,0.308c0.165,0.058,0.343,0.065,0.512,0.018
	c0.169-0.046,0.318-0.144,0.431-0.278c0.111-0.135,0.179-0.301,0.193-0.475v-6.449c0-0.126-0.025-0.251-0.074-0.368
	c-0.05-0.116-0.122-0.221-0.213-0.309c-0.091-0.088-0.199-0.156-0.317-0.202C38.966,13.011,38.84,12.99,38.713,12.995z"/>
</svg>
